# This file uses centimeters as units for non-parametric coordinates.

mtllib myCube.mtl
g default
v -0.500000 -0.500000 0.500000
v 0.500000 -0.500000 0.500000
v -0.500000 0.500000 0.500000
v 0.500000 0.500000 0.500000
v -0.500000 0.500000 -0.500000
v 0.500000 0.500000 -0.500000
v -0.500000 -0.500000 -0.500000
v 0.500000 -0.500000 -0.500000
vt 0.300438 0.352736
vt 0.500061 0.354461
vt 0.307578 0.679911
vt 0.501877 0.675833
vt 0.888475 0.673308
vt 0.497350 0.998281
vt 0.306528 0.029051
vt 0.699726 0.353983
vt 0.306528 0.353376
vt 0.500773 0.353376
vt 0.696122 0.354611
vt 0.696122 0.675833
vt 0.113867 0.352736
vt 0.113867 0.674944
vt 0.500773 0.029051
vt 0.501877 0.354611
vt 0.888475 0.353983
vt 0.305819 0.354461
vt 0.699726 0.673308
vt 0.307578 0.998281
vt 0.500061 0.675683
vt 0.497350 0.679911
vt 0.305819 0.675683
vt 0.300438 0.674944
vn 0.000000 0.000000 1.000000
vn 0.000000 0.000000 1.000000
vn 0.000000 0.000000 1.000000
vn 0.000000 0.000000 1.000000
vn 0.000000 1.000000 0.000000
vn 0.000000 1.000000 0.000000
vn 0.000000 1.000000 0.000000
vn 0.000000 1.000000 0.000000
vn 0.000000 0.000000 -1.000000
vn 0.000000 0.000000 -1.000000
vn 0.000000 0.000000 -1.000000
vn 0.000000 0.000000 -1.000000
vn 0.000000 -1.000000 0.000000
vn 0.000000 -1.000000 0.000000
vn 0.000000 -1.000000 0.000000
vn 0.000000 -1.000000 0.000000
vn 1.000000 0.000000 0.000000
vn 1.000000 0.000000 0.000000
vn 1.000000 0.000000 0.000000
vn 1.000000 0.000000 0.000000
vn -1.000000 0.000000 0.000000
vn -1.000000 0.000000 0.000000
vn -1.000000 0.000000 0.000000
vn -1.000000 0.000000 0.000000
s 1
g pCube1
usemtl lambert2SG
f 1/18/1 2/2/2 3/23/3
f 3/23/3 2/2/2 4/21/4
s 2
f 3/3/5 4/22/6 5/20/7
f 5/20/7 4/22/6 6/6/8
s 3
f 5/5/9 6/19/10 7/17/11
f 7/17/11 6/19/10 8/8/12
s 4
f 7/7/13 8/15/14 1/9/15
f 1/9/15 8/15/14 2/10/16
s 5
f 2/16/17 8/11/18 4/4/19
f 4/4/19 8/11/18 6/12/20
s 6
f 7/13/21 1/1/22 5/14/23
f 5/14/23 1/1/22 3/24/24
